<svg width="100" height="100" viewBox="0 0 100 100" fill="none" xmlns="http://www.w3.org/2000/svg">
<path fill-rule="evenodd" clip-rule="evenodd" d="M61.1749 32.9546C62.0187 31.3374 62.2647 29.9858 62.5069 28.6343C63.0655 28.5093 63.6241 28.3882 64.2178 27.5288C64.8115 26.6694 65.4366 25.0757 65.6826 23.6382C65.9287 22.2007 65.7998 20.9155 65.5459 20.0991C65.3506 19.4584 65.0771 19.103 64.6826 18.9116C64.9014 17.2124 65.1006 15.5054 65.0654 13.7475C65.0264 11.8061 64.7021 9.80216 64.2529 8.20446C63.8076 6.60676 63.2373 5.41536 62.1552 4.22396C61.0732 3.03256 59.4755 1.84116 57.5263 1.09506C55.581 0.348974 53.2841 0.0481638 51.1044 0.00526382C48.9247 -0.0377052 46.8622 0.184954 44.788 0.579484C42.7138 0.974014 40.6318 1.54432 39.1122 2.80218C37.5966 4.05998 36.6474 6.00918 36.0731 8.02488C35.4989 10.0405 35.2997 12.1226 35.3036 13.9624C35.3036 15.7554 35.4989 17.3218 35.6981 18.8804C35.5302 18.9624 35.37 19.0718 35.2294 19.2046C34.4247 19.9585 34.12 21.5523 34.1942 23.0913C34.2684 24.6304 34.7137 26.1186 35.3114 26.9975C35.909 27.8725 36.6552 28.1381 37.4012 28.4037C37.6277 29.4428 37.8543 30.4818 38.3855 31.7396C40.1746 35.974 42.6355 37.681 41.7097 42.4306C41.4363 43.8251 42.0457 45.1767 43.2722 45.8954C44.2878 46.4892 45.6081 46.9306 47.0222 47.5009C46.4441 48.0868 45.8034 48.6571 45.2722 49.1376C44.7683 49.5907 44.7019 50.3524 45.1199 50.8876L46.3426 52.454C46.5418 52.7118 46.8465 52.829 47.1668 52.7704C48.0887 52.6103 49.034 52.5282 50.0027 52.5282C50.9676 52.5282 51.9168 52.6103 52.8386 52.7704C53.1589 52.8251 53.4636 52.7079 53.6628 52.454L54.8855 50.8876C55.3035 50.3524 55.2371 49.5907 54.7332 49.1376C54.1824 48.6415 53.5262 48.0438 52.9363 47.4384C54.3894 46.8329 55.8269 46.2509 56.7449 45.7236C57.9832 45.0127 58.6082 43.6533 58.3387 42.2509C57.534 38.0673 59.2684 36.6064 61.1746 32.9579L61.1749 32.9546ZM21.9759 69.0056C35.1239 74.8376 43.7569 84.3066 48.0269 96.7476C48.5738 98.3453 47.398 99.9937 45.7066 99.9937H36.2574C35.2652 99.9937 34.4097 99.4351 34.0113 98.5249C31.0308 91.7202 26.0152 86.3569 18.5273 82.5369C17.9648 82.2517 17.3632 82.2283 16.7812 82.4783C16.1992 82.7244 15.7968 83.1775 15.6132 83.7791L14.4921 87.4783C14.1523 88.5994 13.2304 89.3689 12.0663 89.4978C10.9022 89.6267 9.83192 89.0837 9.24992 88.0681L0.382718 72.5021C-0.019622 71.7911 -0.105562 71.0333 0.128808 70.2482C0.367088 69.4669 0.859278 68.881 1.58971 68.5138L17.6017 60.4747C18.6486 59.9473 19.84 60.0879 20.7384 60.8419C21.6368 61.5958 21.9767 62.7481 21.6368 63.8692L20.8361 66.5215C20.5353 67.5215 21.0197 68.5801 21.9728 69.0059L21.9759 69.0056ZM78.0309 69.0056C64.8829 74.8415 56.2539 84.3026 51.9799 96.7476C51.433 98.3453 52.6088 99.9937 54.2963 99.9937H63.7455C64.7416 99.9937 65.5932 99.439 65.9916 98.5249C68.9721 91.7202 73.9877 86.3569 81.4756 82.5369C82.0381 82.2478 82.6397 82.2283 83.2217 82.4783C83.8037 82.7244 84.2061 83.1736 84.3897 83.7791L85.5108 87.4783C85.8507 88.5994 86.7725 89.3689 87.9366 89.4978C89.1007 89.6306 90.171 89.0837 90.753 88.0681L99.6202 72.5021C100.023 71.7911 100.108 71.0333 99.8741 70.2482C99.6358 69.4669 99.1437 68.881 98.4132 68.5138L82.4012 60.4747C81.3543 59.9473 80.1629 60.0879 79.2645 60.8419C78.3661 61.5958 78.0262 62.7481 78.3661 63.8692L79.1669 66.5215C79.4716 67.5215 78.9879 68.5798 78.0309 69.0056ZM49.1829 35.3536C49.722 35.3536 50.1712 35.3067 50.5423 35.2012C50.9134 35.0997 51.2064 34.9317 51.4329 34.7051C51.6517 34.4786 51.804 34.1739 51.8939 33.795C51.9837 33.4239 52.0228 32.9512 52.0228 32.4005C52.0228 31.8341 51.9798 31.3653 51.8939 30.9786C51.804 30.5919 51.6517 30.2794 51.4329 30.045C51.2064 29.8106 50.9134 29.6465 50.5423 29.5411C50.1712 29.4395 49.722 29.3887 49.1829 29.3887C48.6165 29.3887 48.1477 29.4356 47.7884 29.5411C47.4212 29.6465 47.1322 29.8106 46.9056 30.045C46.6869 30.2794 46.5345 30.5919 46.4447 30.9786C46.3548 31.3653 46.3119 31.834 46.3119 32.4005C46.3119 32.9513 46.3548 33.4239 46.4447 33.795C46.5345 34.1739 46.6869 34.4786 46.9056 34.7051C47.1322 34.9317 47.4251 35.0997 47.7884 35.2012C48.1478 35.3028 48.6165 35.3536 49.1829 35.3536ZM49.1478 27.3575C49.8431 27.3575 50.3822 27.295 50.7494 27.1778C51.1205 27.0528 51.3158 26.8731 51.3275 26.627L51.4876 22.6778C52.4603 22.5684 53.3509 22.3184 54.1517 21.9317C54.9525 21.5372 55.6439 21.0215 56.2181 20.3692C56.7963 19.7208 57.2415 18.9551 57.5579 18.0645C57.8744 17.1739 58.0345 16.1739 58.0345 15.0684C58.0345 14.0059 57.8704 12.9903 57.5306 12.0372C57.1908 11.0763 56.6634 10.2286 55.9447 9.4903C55.2181 8.74421 54.2924 8.1583 53.1556 7.7169C52.0228 7.28331 50.6634 7.06065 49.0697 7.06065C48.3666 7.06065 47.6947 7.11534 47.0463 7.22081C46.3979 7.33019 45.808 7.463 45.2846 7.62315C44.7612 7.77549 44.3041 7.94737 43.9252 8.12706C43.5541 8.30675 43.2885 8.4669 43.1596 8.60362C43.0229 8.73643 42.9369 8.91612 42.8979 9.12706C42.8588 9.3419 42.8354 9.68565 42.8354 10.1623C42.8354 10.6193 42.851 10.9982 42.8822 11.2951C42.9174 11.5919 42.9643 11.8185 43.015 11.9787C43.0697 12.1466 43.14 12.256 43.2221 12.3185C43.2963 12.381 43.3861 12.4083 43.4838 12.4083C43.6166 12.4083 43.808 12.338 44.058 12.2091C44.3119 12.0763 44.6244 11.9279 45.0033 11.7677C45.3744 11.6075 45.8314 11.4552 46.3549 11.3263C46.8784 11.1974 47.4877 11.1271 48.1791 11.1271C48.9369 11.1271 49.5932 11.2325 50.1557 11.4396C50.7143 11.6544 51.183 11.9513 51.5502 12.3458C51.9252 12.7325 52.1987 13.2013 52.3783 13.7403C52.5658 14.2794 52.6557 14.8731 52.6557 15.5215C52.6557 16.0996 52.5815 16.6465 52.4213 17.1582C52.269 17.6699 52.019 18.1192 51.683 18.4902C51.351 18.8691 50.9252 19.1738 50.3978 19.4004C49.8783 19.6269 49.265 19.7441 48.5462 19.7441H48.265C47.9681 19.7441 47.7103 19.7715 47.4993 19.834C47.2845 19.8965 47.1048 20.0059 46.9603 20.166C46.8236 20.334 46.7259 20.5449 46.6712 20.8145C46.6165 21.084 46.5931 21.4355 46.6087 21.8653L46.7884 26.6426C46.804 26.7871 46.8509 26.9121 46.9329 27.0019C47.015 27.0996 47.14 27.1738 47.3119 27.2246C47.4915 27.2793 47.7259 27.3222 48.0306 27.3418C48.3353 27.3613 48.7064 27.3691 49.1556 27.3691L49.1478 27.3575ZM52.8197 55.0645L53.4173 59.9825L59.1868 48.4475C59.9095 47.01 61.3313 46.1819 62.9368 46.2756C69.2298 46.6349 79.6318 48.0764 82.7998 49.9318C85.1826 51.3263 86.667 53.7482 87.6201 56.6076C88.0615 57.9318 86.6826 59.1271 85.4326 58.5021L83.8076 57.6857C81.6435 56.5998 79.1084 56.8966 77.2568 58.4552C75.417 60.006 74.6826 62.4747 75.3779 64.7794L75.5185 65.252C75.7412 65.9942 75.4013 66.7715 74.706 67.1114C67.9638 70.4044 62.241 74.7559 57.706 80.1814C57.0928 80.9158 56.2646 81.3025 55.3076 81.3025H44.6986C43.7416 81.3025 42.9134 80.9158 42.3002 80.1814C37.765 74.7557 32.0422 70.4041 25.3002 67.1114C24.6049 66.7716 24.265 65.9942 24.4877 65.252L24.6284 64.7794C25.3237 62.4786 24.5893 60.006 22.7495 58.4552C20.8979 56.8966 18.3628 56.5997 16.1987 57.6857L14.5737 58.5021C13.3276 59.1271 11.9448 57.9318 12.3862 56.6076C13.3393 53.7482 14.8198 51.3264 17.2065 49.9318C20.3706 48.0802 30.7765 46.6349 37.0695 46.2756C38.675 46.1857 40.1007 47.0099 40.8195 48.4475L46.589 59.9785L47.1866 55.0644C47.2335 54.6698 47.5265 54.3651 47.9171 54.3105C48.6007 54.2128 49.296 54.162 50.0069 54.162C50.7139 54.162 51.4131 54.2128 52.0928 54.3105C52.4834 54.3651 52.7764 54.6737 52.8233 55.0644L52.8197 55.0645Z" fill="black"/>
</svg>
