<svg width="42" height="21" viewBox="0 0 42 21" fill="none" xmlns="http://www.w3.org/2000/svg">
<rect width="42" height="21" rx="4" fill="#10B981"/>
<path d="M8.262 7.35V10.356H11.796V11.304H8.262V15H7.098V6.402H12.396V7.35H8.262ZM16.2652 10.566C16.6012 10.566 16.8972 10.526 17.1532 10.446C17.4132 10.362 17.6292 10.246 17.8012 10.098C17.9772 9.946 18.1092 9.766 18.1972 9.558C18.2852 9.35 18.3292 9.12 18.3292 8.868C18.3292 8.356 18.1612 7.97 17.8252 7.71C17.4892 7.45 16.9852 7.32 16.3132 7.32H15.0412V10.566H16.2652ZM20.2372 15H19.2052C18.9932 15 18.8372 14.918 18.7372 14.754L16.5052 11.682C16.4372 11.586 16.3632 11.518 16.2832 11.478C16.2072 11.434 16.0872 11.412 15.9232 11.412H15.0412V15H13.8832V6.402H16.3132C16.8572 6.402 17.3272 6.458 17.7232 6.57C18.1192 6.678 18.4452 6.836 18.7012 7.044C18.9612 7.252 19.1532 7.504 19.2772 7.8C19.4012 8.092 19.4632 8.42 19.4632 8.784C19.4632 9.088 19.4152 9.372 19.3192 9.636C19.2232 9.9 19.0832 10.138 18.8992 10.35C18.7192 10.558 18.4972 10.736 18.2332 10.884C17.9732 11.032 17.6772 11.144 17.3452 11.22C17.4932 11.304 17.6212 11.426 17.7292 11.586L20.2372 15ZM26.7106 14.052L26.7046 15H21.4066V6.402H26.7046V7.35H22.5706V10.206H25.9186V11.118H22.5706V14.052H26.7106ZM33.6364 14.052L33.6304 15H28.3324V6.402H33.6304V7.35H29.4964V10.206H32.8444V11.118H29.4964V14.052H33.6364Z" fill="white"/>
</svg>
