<svg width="4285" height="1096" viewBox="0 0 4285 1096" fill="none" xmlns="http://www.w3.org/2000/svg">
<path d="M387.541 841.528C344.661 826.339 305.458 802.114 272.525 770.454C239.591 738.795 213.678 700.422 196.498 657.875C179.318 615.327 171.264 569.575 172.868 523.643C174.472 477.712 185.698 432.648 205.803 391.433C225.908 350.219 254.434 313.792 289.494 284.562C324.554 255.332 365.349 233.966 409.181 221.877C453.012 209.788 498.882 207.25 543.756 214.433C588.629 221.616 652.447 250.561 690.448 275.749L631.122 322.775C601.41 303.08 567.902 289.992 532.816 284.375C497.73 278.759 461.865 280.743 427.593 290.195C393.321 299.648 361.424 316.354 334.011 339.208C306.598 362.062 284.294 390.544 268.574 422.77C252.854 454.995 244.077 490.23 242.823 526.143C241.568 562.057 247.866 597.83 261.298 631.098C274.731 664.365 294.993 694.368 320.743 719.122C346.494 743.877 377.146 762.818 410.673 774.694L387.541 841.528Z" fill="url(#paint0_linear_210_8)"/>
<path d="M329.402 375.574V626.534L390.976 681.577V515.515L464.678 580.82V876.561L495.465 895.22L525.319 876.561V580.82L736.163 387.702V745.95L798.67 706.767L797.737 249.627L494.532 525.777L329.402 375.574Z" fill="#106EBE"/>
<path d="M661.528 558.43L600.887 613.473V828.981L661.528 797.262V558.43Z" fill="#106EBE"/>
<path d="M660.899 558.818L600.258 613.861V829.369L660.899 797.65V558.818Z" fill="url(#paint1_linear_210_8)"/>
<path d="M1011.34 699.818C992.599 699.818 976.673 693.26 963.558 680.145C950.443 667.029 943.885 651.104 943.885 632.368V430.018C943.885 411.282 950.443 395.357 963.558 382.241C976.673 369.126 992.599 362.569 1011.34 362.569H1280.2V430.018H1026.79C1017.42 430.018 1012.43 430.331 1011.8 430.955C1011.49 431.58 1011.34 436.576 1011.34 445.944V616.442C1011.34 625.81 1011.49 630.806 1011.8 631.431C1012.43 632.055 1017.42 632.368 1026.79 632.368H1280.2V699.818H1011.34ZM1327.16 699.818V494.189C1327.16 476.39 1333.72 460.933 1346.83 447.818C1359.95 434.702 1375.56 428.145 1393.67 428.145H1544.03V494.658H1409.6C1400.23 494.658 1395.24 494.97 1394.61 495.595C1393.99 496.219 1393.67 501.215 1393.67 510.583V699.818H1327.16ZM1642.03 699.818C1624.23 699.818 1608.78 693.26 1595.66 680.145C1582.55 667.029 1575.99 651.572 1575.99 633.773V494.189C1575.99 476.39 1582.55 460.933 1595.66 447.818C1608.78 434.702 1624.23 428.145 1642.03 428.145H1785.36C1803.79 428.145 1819.4 434.702 1832.2 447.818C1845.01 460.933 1851.41 476.39 1851.41 494.189V597.238H1642.5V617.379C1642.5 626.747 1642.81 631.743 1643.44 632.368C1644.06 632.992 1649.06 633.305 1658.43 633.305H1851.41V699.818H1642.03ZM1642.5 538.219H1784.9V510.583C1784.9 501.215 1784.58 496.219 1783.96 495.595C1783.65 494.97 1778.65 494.658 1768.97 494.658H1658.43C1649.06 494.658 1644.06 494.97 1643.44 495.595C1642.81 496.219 1642.5 501.215 1642.5 510.583V538.219ZM1953.23 699.818C1935.12 699.818 1919.51 693.26 1906.39 680.145C1893.59 667.029 1887.19 651.572 1887.19 633.773V494.189C1887.19 476.39 1893.59 460.933 1906.39 447.818C1919.51 434.702 1935.12 428.145 1953.23 428.145H2096.56V339.149H2163.07V699.818H1953.23ZM1970.09 633.305H2080.64C2090.32 633.305 2095.31 632.992 2095.63 632.368C2096.25 631.743 2096.56 626.747 2096.56 617.379V510.583C2096.56 501.215 2096.25 496.219 2095.63 495.595C2095.31 494.97 2090.32 494.658 2080.64 494.658H1970.09C1960.73 494.658 1955.73 494.97 1955.1 495.595C1954.48 496.219 1954.17 501.215 1954.17 510.583V617.379C1954.17 626.747 1954.48 631.743 1955.1 632.368C1955.73 632.992 1960.73 633.305 1970.09 633.305Z" fill="url(#paint2_linear_210_8)"/>
<path d="M2215.06 699.818V362.569H2286.26L2404.77 503.557L2522.8 362.569H2594.47V699.818H2527.02V462.806L2404.77 608.479L2282.51 463.275V699.818H2215.06ZM2710.13 699.818C2692.02 699.818 2676.4 693.26 2663.29 680.145C2650.48 667.029 2644.08 651.572 2644.08 633.773V530.725H2852.99V510.583C2852.99 501.215 2852.68 496.219 2852.05 495.595C2851.74 494.97 2846.74 494.658 2837.06 494.658H2644.08V428.145H2853.46C2871.88 428.145 2887.5 434.702 2900.3 447.818C2913.1 460.933 2919.5 476.39 2919.5 494.189V699.818H2710.13ZM2726.52 633.305H2852.99V589.743H2710.6V617.379C2710.6 626.747 2710.91 631.743 2711.53 632.368C2712.16 632.992 2717.15 633.305 2726.52 633.305ZM3036.29 699.818C3018.18 699.818 3002.57 693.26 2989.45 680.145C2976.34 667.029 2969.78 651.572 2969.78 633.773V346.175H3036.29V428.145H3139.81V494.658H3036.29V617.379C3036.29 626.747 3036.6 631.743 3037.23 632.368C3037.85 632.992 3042.85 633.305 3052.22 633.305H3139.81V699.818H3036.29ZM3181.55 699.818V494.189C3181.55 476.39 3188.11 460.933 3201.23 447.818C3214.34 434.702 3229.96 428.145 3248.07 428.145H3398.42V494.658H3263.99C3254.63 494.658 3249.63 494.97 3249 495.595C3248.38 496.219 3248.07 501.215 3248.07 510.583V699.818H3181.55ZM3434.97 699.818V428.145H3501.48V699.818H3434.97ZM3434.97 406.13V339.149H3501.48V406.13H3434.97Z" fill="#106EBE"/>
<path d="M3931.17 711.523H3828.93L3551.42 432.148H3653.66L3931.17 711.523Z" fill="#106EBE"/>
<path d="M3512.46 711.523L3716.94 800.105L3625.56 699.526L3945.76 364.008L4004.19 295.867L3512.46 711.523Z" fill="url(#paint3_linear_210_8)"/>
<defs>
<linearGradient id="paint0_linear_210_8" x1="431.558" y1="210.444" x2="431.558" y2="841.528" gradientUnits="userSpaceOnUse">
<stop stop-color="#106EBE"/>
<stop offset="1" stop-color="#073358"/>
</linearGradient>
<linearGradient id="paint1_linear_210_8" x1="630.578" y1="558.818" x2="630.578" y2="829.369" gradientUnits="userSpaceOnUse">
<stop stop-color="#106EBE"/>
<stop offset="1" stop-color="#073358"/>
</linearGradient>
<linearGradient id="paint2_linear_210_8" x1="2216.96" y1="299.818" x2="2216.96" y2="740.818" gradientUnits="userSpaceOnUse">
<stop stop-color="#106EBE"/>
<stop offset="1" stop-color="#073358"/>
</linearGradient>
<linearGradient id="paint3_linear_210_8" x1="3758.33" y1="295.867" x2="3758.33" y2="800.105" gradientUnits="userSpaceOnUse">
<stop stop-color="#106EBE"/>
<stop offset="1" stop-color="#073358"/>
</linearGradient>
</defs>
</svg>
